<svg xmlns="http://www.w3.org/2000/svg" xmlns:xlink="http://www.w3.org/1999/xlink" width="512" zoomAndPan="magnify" viewBox="0 0 384 383.999986" height="512" preserveAspectRatio="xMidYMid meet" version="1.2"><defs><clipPath id="2e1941e08c"><path d="M 69 33.15625 L 299 33.15625 L 299 195 L 69 195 Z M 69 33.15625 "/></clipPath><clipPath id="e7da3b401e"><path d="M 64.1875 128 L 304 128 L 304 267.90625 L 64.1875 267.90625 Z M 64.1875 128 "/></clipPath></defs><g id="c2d053dfbe"><g clip-rule="nonzero" clip-path="url(#2e1941e08c)"><path style=" stroke:none;fill-rule:evenodd;fill:#d9d9d9;fill-opacity:1;" d="M 122.007812 116.289062 L 155.527344 116.289062 L 155.527344 194.949219 L 168.042969 187.800781 L 168.042969 91.707031 L 201.5625 91.707031 L 201.5625 167.945312 L 214.078125 160.535156 L 214.078125 67.125 L 247.597656 67.125 L 247.597656 139.441406 L 265.921875 127.910156 L 255.957031 111.992188 L 298.957031 116.613281 C 284.414062 68.332031 239.601562 33.15625 186.589844 33.15625 C 121.800781 33.15625 69.261719 85.699219 69.261719 150.488281 C 69.261719 162.085938 70.945312 173.292969 74.082031 183.875 L 98.621094 169.800781 L 122.007812 183.917969 Z M 122.007812 116.289062 "/></g><g clip-rule="nonzero" clip-path="url(#e7da3b401e)"><path style=" stroke:none;fill-rule:evenodd;fill:#ff914d;fill-opacity:1;" d="M 279.199219 150.980469 C 278.53125 149.1875 147.484375 230.707031 147.484375 230.707031 L 100.410156 201.617188 L 85.554688 210.167969 L 64.203125 222.457031 L 93.648438 222.101562 C 115.109375 249.90625 148.761719 267.820312 186.589844 267.820312 C 251.378906 267.820312 303.921875 215.277344 303.921875 150.488281 C 303.921875 143.050781 303.230469 135.777344 301.90625 128.726562 L 288.8125 164.871094 C 288.8125 164.871094 279.871094 152.773438 279.199219 150.980469 Z M 279.199219 150.980469 "/></g><g style="fill:#d9d9d9;fill-opacity:1;"><g transform="translate(79.628154, 322.352319)"><path style="stroke:none" d="M 15.671875 0 L 0.875 -40.484375 L 8.796875 -40.484375 L 20.25 -7.578125 L 31.75 -40.484375 L 39.5625 -40.484375 L 24.75 0 Z M 15.671875 0 "/></g></g><g style="fill:#d9d9d9;fill-opacity:1;"><g transform="translate(116.589821, 322.352319)"><path style="stroke:none" d="M 17.703125 0.6875 C 14.804688 0.6875 12.238281 0.0703125 10 -1.15625 C 7.769531 -2.394531 6.015625 -4.128906 4.734375 -6.359375 C 3.460938 -8.597656 2.828125 -11.179688 2.828125 -14.109375 C 2.828125 -17.078125 3.453125 -19.71875 4.703125 -22.03125 C 5.960938 -24.351562 7.703125 -26.160156 9.921875 -27.453125 C 12.140625 -28.742188 14.753906 -29.390625 17.765625 -29.390625 C 20.578125 -29.390625 23.0625 -28.769531 25.21875 -27.53125 C 27.375 -26.300781 29.0625 -24.613281 30.28125 -22.46875 C 31.5 -20.332031 32.109375 -17.953125 32.109375 -15.328125 C 32.109375 -14.898438 32.097656 -14.453125 32.078125 -13.984375 C 32.054688 -13.523438 32.023438 -13.046875 31.984375 -12.546875 L 10.1875 -12.546875 C 10.332031 -10.316406 11.109375 -8.5625 12.515625 -7.28125 C 13.929688 -6.007812 15.640625 -5.375 17.640625 -5.375 C 19.140625 -5.375 20.398438 -5.710938 21.421875 -6.390625 C 22.453125 -7.066406 23.21875 -7.945312 23.71875 -9.03125 L 31.234375 -9.03125 C 30.691406 -7.21875 29.796875 -5.566406 28.546875 -4.078125 C 27.296875 -2.585938 25.753906 -1.421875 23.921875 -0.578125 C 22.085938 0.265625 20.015625 0.6875 17.703125 0.6875 Z M 17.765625 -23.375 C 15.953125 -23.375 14.347656 -22.859375 12.953125 -21.828125 C 11.566406 -20.804688 10.679688 -19.253906 10.296875 -17.171875 L 24.578125 -17.171875 C 24.460938 -19.066406 23.769531 -20.570312 22.5 -21.6875 C 21.226562 -22.8125 19.648438 -23.375 17.765625 -23.375 Z M 17.765625 -23.375 "/></g></g><g style="fill:#d9d9d9;fill-opacity:1;"><g transform="translate(147.709257, 322.352319)"><path style="stroke:none" d="M 3.765625 0 L 3.765625 -28.6875 L 10.359375 -28.6875 L 11.046875 -23.3125 C 12.085938 -25.164062 13.503906 -26.640625 15.296875 -27.734375 C 17.085938 -28.835938 19.203125 -29.390625 21.640625 -29.390625 L 21.640625 -21.578125 L 19.546875 -21.578125 C 17.929688 -21.578125 16.484375 -21.328125 15.203125 -20.828125 C 13.929688 -20.328125 12.9375 -19.457031 12.21875 -18.21875 C 11.507812 -16.988281 11.15625 -15.273438 11.15625 -13.078125 L 11.15625 0 Z M 3.765625 0 "/></g></g><g style="fill:#d9d9d9;fill-opacity:1;"><g transform="translate(167.144253, 322.352319)"><path style="stroke:none" d="M 7.75 -33.140625 C 6.394531 -33.140625 5.285156 -33.546875 4.421875 -34.359375 C 3.554688 -35.171875 3.125 -36.191406 3.125 -37.421875 C 3.125 -38.660156 3.554688 -39.671875 4.421875 -40.453125 C 5.285156 -41.242188 6.394531 -41.640625 7.75 -41.640625 C 9.101562 -41.640625 10.210938 -41.242188 11.078125 -40.453125 C 11.941406 -39.671875 12.375 -38.660156 12.375 -37.421875 C 12.375 -36.191406 11.941406 -35.171875 11.078125 -34.359375 C 10.210938 -33.546875 9.101562 -33.140625 7.75 -33.140625 Z M 4.046875 0 L 4.046875 -28.6875 L 11.453125 -28.6875 L 11.453125 0 Z M 4.046875 0 "/></g></g><g style="fill:#ff914d;fill-opacity:1;"><g transform="translate(179.120333, 322.352319)"><path style="stroke:none" d="M 13.359375 0 L 13.359375 -34.53125 L 1.5625 -34.53125 L 1.5625 -40.484375 L 32.625 -40.484375 L 32.625 -34.53125 L 20.765625 -34.53125 L 20.765625 0 Z M 13.359375 0 "/></g></g><g style="fill:#ff914d;fill-opacity:1;"><g transform="translate(209.834866, 322.352319)"><path style="stroke:none" d="M 1.328125 0 L 16.140625 -40.484375 L 24.46875 -40.484375 L 39.28125 0 L 31.40625 0 L 28.171875 -9.375 L 12.375 -9.375 L 9.078125 0 Z M 14.40625 -15.15625 L 26.140625 -15.15625 L 20.25 -31.984375 Z M 14.40625 -15.15625 "/></g></g><g style="fill:#ff914d;fill-opacity:1;"><g transform="translate(246.912221, 322.352319)"><path style="stroke:none" d="M 17.765625 0.6875 C 14.785156 0.6875 12.160156 0.175781 9.890625 -0.84375 C 7.617188 -1.863281 5.828125 -3.328125 4.515625 -5.234375 C 3.203125 -7.140625 2.523438 -9.460938 2.484375 -12.203125 L 10.296875 -12.203125 C 10.367188 -10.316406 11.050781 -8.726562 12.34375 -7.4375 C 13.632812 -6.144531 15.421875 -5.5 17.703125 -5.5 C 19.671875 -5.5 21.234375 -5.96875 22.390625 -6.90625 C 23.546875 -7.851562 24.125 -9.117188 24.125 -10.703125 C 24.125 -12.359375 23.613281 -13.648438 22.59375 -14.578125 C 21.570312 -15.503906 20.210938 -16.253906 18.515625 -16.828125 C 16.816406 -17.410156 15.003906 -18.03125 13.078125 -18.6875 C 9.953125 -19.757812 7.566406 -21.144531 5.921875 -22.84375 C 4.285156 -24.539062 3.46875 -26.796875 3.46875 -29.609375 C 3.425781 -32.003906 3.992188 -34.054688 5.171875 -35.765625 C 6.347656 -37.484375 7.957031 -38.816406 10 -39.765625 C 12.050781 -40.710938 14.40625 -41.1875 17.0625 -41.1875 C 19.757812 -41.1875 22.140625 -40.703125 24.203125 -39.734375 C 26.265625 -38.773438 27.882812 -37.425781 29.0625 -35.6875 C 30.238281 -33.957031 30.867188 -31.894531 30.953125 -29.5 L 23.015625 -29.5 C 22.984375 -30.925781 22.4375 -32.1875 21.375 -33.28125 C 20.3125 -34.382812 18.835938 -34.9375 16.953125 -34.9375 C 15.328125 -34.976562 13.960938 -34.582031 12.859375 -33.75 C 11.765625 -32.925781 11.21875 -31.722656 11.21875 -30.140625 C 11.21875 -28.785156 11.640625 -27.710938 12.484375 -26.921875 C 13.335938 -26.128906 14.492188 -25.460938 15.953125 -24.921875 C 17.421875 -24.390625 19.101562 -23.816406 21 -23.203125 C 23 -22.503906 24.828125 -21.691406 26.484375 -20.765625 C 28.148438 -19.835938 29.484375 -18.613281 30.484375 -17.09375 C 31.484375 -15.570312 31.984375 -13.613281 31.984375 -11.21875 C 31.984375 -9.101562 31.441406 -7.140625 30.359375 -5.328125 C 29.285156 -3.515625 27.6875 -2.054688 25.5625 -0.953125 C 23.445312 0.140625 20.847656 0.6875 17.765625 0.6875 Z M 17.765625 0.6875 "/></g></g><g style="fill:#ffffff;fill-opacity:1;"><g transform="translate(277.9797, 322.352319)"><path style="stroke:none" d=""/></g></g><g style="fill:#d9d9d9;fill-opacity:1;"><g transform="translate(98.097083, 349.804952)"><path style="stroke:none" d="M 1.96875 0 L 1.96875 -20.3125 L 8.90625 -20.3125 C 11.289062 -20.3125 13.25 -19.890625 14.78125 -19.046875 C 16.320312 -18.203125 17.460938 -17.019531 18.203125 -15.5 C 18.953125 -13.988281 19.328125 -12.207031 19.328125 -10.15625 C 19.328125 -8.101562 18.953125 -6.316406 18.203125 -4.796875 C 17.460938 -3.285156 16.320312 -2.109375 14.78125 -1.265625 C 13.25 -0.421875 11.289062 0 8.90625 0 Z M 5.6875 -3.1875 L 8.734375 -3.1875 C 10.429688 -3.1875 11.773438 -3.460938 12.765625 -4.015625 C 13.753906 -4.566406 14.457031 -5.359375 14.875 -6.390625 C 15.300781 -7.429688 15.515625 -8.6875 15.515625 -10.15625 C 15.515625 -11.601562 15.300781 -12.847656 14.875 -13.890625 C 14.457031 -14.941406 13.753906 -15.742188 12.765625 -16.296875 C 11.773438 -16.859375 10.429688 -17.140625 8.734375 -17.140625 L 5.6875 -17.140625 Z M 5.6875 -3.1875 "/></g></g><g style="fill:#d9d9d9;fill-opacity:1;"><g transform="translate(116.978071, 349.804952)"><path style="stroke:none" d="M 7.28125 0.34375 C 5.476562 0.34375 4.085938 -0.210938 3.109375 -1.328125 C 2.140625 -2.453125 1.65625 -4.097656 1.65625 -6.265625 L 1.65625 -14.390625 L 5.34375 -14.390625 L 5.34375 -6.609375 C 5.34375 -5.378906 5.59375 -4.429688 6.09375 -3.765625 C 6.59375 -3.109375 7.382812 -2.78125 8.46875 -2.78125 C 9.5 -2.78125 10.347656 -3.144531 11.015625 -3.875 C 11.679688 -4.613281 12.015625 -5.644531 12.015625 -6.96875 L 12.015625 -14.390625 L 15.71875 -14.390625 L 15.71875 0 L 12.453125 0 L 12.15625 -2.4375 C 11.707031 -1.582031 11.0625 -0.90625 10.21875 -0.40625 C 9.382812 0.09375 8.40625 0.34375 7.28125 0.34375 Z M 7.28125 0.34375 "/></g></g><g style="fill:#d9d9d9;fill-opacity:1;"><g transform="translate(132.871647, 349.804952)"><path style="stroke:none" d="M 8.875 0.34375 C 7.425781 0.34375 6.140625 0.0351562 5.015625 -0.578125 C 3.898438 -1.203125 3.019531 -2.070312 2.375 -3.1875 C 1.738281 -4.3125 1.421875 -5.609375 1.421875 -7.078125 C 1.421875 -8.566406 1.734375 -9.890625 2.359375 -11.046875 C 2.992188 -12.210938 3.863281 -13.117188 4.96875 -13.765625 C 6.082031 -14.410156 7.394531 -14.734375 8.90625 -14.734375 C 10.320312 -14.734375 11.570312 -14.425781 12.65625 -13.8125 C 13.738281 -13.195312 14.582031 -12.347656 15.1875 -11.265625 C 15.800781 -10.191406 16.109375 -9 16.109375 -7.6875 C 16.109375 -7.476562 16.101562 -7.253906 16.09375 -7.015625 C 16.082031 -6.785156 16.066406 -6.546875 16.046875 -6.296875 L 5.109375 -6.296875 C 5.179688 -5.171875 5.570312 -4.289062 6.28125 -3.65625 C 6.988281 -3.019531 7.84375 -2.703125 8.84375 -2.703125 C 9.601562 -2.703125 10.238281 -2.867188 10.75 -3.203125 C 11.257812 -3.546875 11.640625 -3.988281 11.890625 -4.53125 L 15.671875 -4.53125 C 15.398438 -3.613281 14.945312 -2.78125 14.3125 -2.03125 C 13.6875 -1.289062 12.914062 -0.707031 12 -0.28125 C 11.082031 0.132812 10.039062 0.34375 8.875 0.34375 Z M 8.90625 -11.71875 C 8 -11.71875 7.195312 -11.460938 6.5 -10.953125 C 5.800781 -10.441406 5.359375 -9.664062 5.171875 -8.625 L 12.328125 -8.625 C 12.273438 -9.570312 11.925781 -10.320312 11.28125 -10.875 C 10.644531 -11.4375 9.851562 -11.71875 8.90625 -11.71875 Z M 8.90625 -11.71875 "/></g></g><g style="fill:#d9d9d9;fill-opacity:1;"><g transform="translate(148.475185, 349.804952)"><path style="stroke:none" d=""/></g></g><g style="fill:#d9d9d9;fill-opacity:1;"><g transform="translate(153.637294, 349.804952)"><path style="stroke:none" d="M 1.96875 0 L 1.96875 -20.3125 L 8.90625 -20.3125 C 11.289062 -20.3125 13.25 -19.890625 14.78125 -19.046875 C 16.320312 -18.203125 17.460938 -17.019531 18.203125 -15.5 C 18.953125 -13.988281 19.328125 -12.207031 19.328125 -10.15625 C 19.328125 -8.101562 18.953125 -6.316406 18.203125 -4.796875 C 17.460938 -3.285156 16.320312 -2.109375 14.78125 -1.265625 C 13.25 -0.421875 11.289062 0 8.90625 0 Z M 5.6875 -3.1875 L 8.734375 -3.1875 C 10.429688 -3.1875 11.773438 -3.460938 12.765625 -4.015625 C 13.753906 -4.566406 14.457031 -5.359375 14.875 -6.390625 C 15.300781 -7.429688 15.515625 -8.6875 15.515625 -10.15625 C 15.515625 -11.601562 15.300781 -12.847656 14.875 -13.890625 C 14.457031 -14.941406 13.753906 -15.742188 12.765625 -16.296875 C 11.773438 -16.859375 10.429688 -17.140625 8.734375 -17.140625 L 5.6875 -17.140625 Z M 5.6875 -3.1875 "/></g></g><g style="fill:#d9d9d9;fill-opacity:1;"><g transform="translate(172.518281, 349.804952)"><path style="stroke:none" d="M 3.890625 -16.625 C 3.210938 -16.625 2.65625 -16.828125 2.21875 -17.234375 C 1.78125 -17.640625 1.5625 -18.148438 1.5625 -18.765625 C 1.5625 -19.390625 1.78125 -19.898438 2.21875 -20.296875 C 2.65625 -20.691406 3.210938 -20.890625 3.890625 -20.890625 C 4.566406 -20.890625 5.117188 -20.691406 5.546875 -20.296875 C 5.984375 -19.898438 6.203125 -19.390625 6.203125 -18.765625 C 6.203125 -18.148438 5.984375 -17.640625 5.546875 -17.234375 C 5.117188 -16.828125 4.566406 -16.625 3.890625 -16.625 Z M 2.03125 0 L 2.03125 -14.390625 L 5.75 -14.390625 L 5.75 0 Z M 2.03125 0 "/></g></g><g style="fill:#d9d9d9;fill-opacity:1;"><g transform="translate(178.521496, 349.804952)"><path style="stroke:none" d="M 1.890625 0 L 1.890625 -20.890625 L 5.59375 -20.890625 L 5.59375 0 Z M 1.890625 0 "/></g></g><g style="fill:#d9d9d9;fill-opacity:1;"><g transform="translate(184.292683, 349.804952)"><path style="stroke:none" d="M 3.890625 -16.625 C 3.210938 -16.625 2.65625 -16.828125 2.21875 -17.234375 C 1.78125 -17.640625 1.5625 -18.148438 1.5625 -18.765625 C 1.5625 -19.390625 1.78125 -19.898438 2.21875 -20.296875 C 2.65625 -20.691406 3.210938 -20.890625 3.890625 -20.890625 C 4.566406 -20.890625 5.117188 -20.691406 5.546875 -20.296875 C 5.984375 -19.898438 6.203125 -19.390625 6.203125 -18.765625 C 6.203125 -18.148438 5.984375 -17.640625 5.546875 -17.234375 C 5.117188 -16.828125 4.566406 -16.625 3.890625 -16.625 Z M 2.03125 0 L 2.03125 -14.390625 L 5.75 -14.390625 L 5.75 0 Z M 2.03125 0 "/></g></g><g style="fill:#d9d9d9;fill-opacity:1;"><g transform="translate(190.295898, 349.804952)"><path style="stroke:none" d="M 7.984375 -4.296875 C 7.285156 -4.296875 6.632812 -4.375 6.03125 -4.53125 L 4.96875 -3.453125 C 5.289062 -3.273438 5.734375 -3.128906 6.296875 -3.015625 C 6.859375 -2.898438 7.769531 -2.785156 9.03125 -2.671875 C 10.9375 -2.492188 12.320312 -2.035156 13.1875 -1.296875 C 14.0625 -0.566406 14.5 0.441406 14.5 1.734375 C 14.5 2.585938 14.265625 3.394531 13.796875 4.15625 C 13.335938 4.925781 12.625 5.546875 11.65625 6.015625 C 10.695312 6.492188 9.460938 6.734375 7.953125 6.734375 C 5.898438 6.734375 4.242188 6.347656 2.984375 5.578125 C 1.734375 4.816406 1.109375 3.671875 1.109375 2.140625 C 1.109375 0.847656 1.734375 -0.269531 2.984375 -1.21875 C 2.597656 -1.394531 2.265625 -1.578125 1.984375 -1.765625 C 1.703125 -1.960938 1.457031 -2.164062 1.25 -2.375 L 1.25 -3.046875 L 3.765625 -5.71875 C 2.648438 -6.707031 2.09375 -7.972656 2.09375 -9.515625 C 2.09375 -10.484375 2.328125 -11.363281 2.796875 -12.15625 C 3.273438 -12.945312 3.945312 -13.570312 4.8125 -14.03125 C 5.6875 -14.5 6.742188 -14.734375 7.984375 -14.734375 C 8.796875 -14.734375 9.550781 -14.617188 10.25 -14.390625 L 15.703125 -14.390625 L 15.703125 -12.125 L 13.234375 -11.953125 C 13.617188 -11.222656 13.8125 -10.410156 13.8125 -9.515625 C 13.8125 -8.546875 13.578125 -7.664062 13.109375 -6.875 C 12.648438 -6.082031 11.976562 -5.453125 11.09375 -4.984375 C 10.21875 -4.523438 9.179688 -4.296875 7.984375 -4.296875 Z M 7.984375 -7.140625 C 8.734375 -7.140625 9.351562 -7.34375 9.84375 -7.75 C 10.34375 -8.15625 10.59375 -8.734375 10.59375 -9.484375 C 10.59375 -10.242188 10.34375 -10.828125 9.84375 -11.234375 C 9.351562 -11.640625 8.734375 -11.84375 7.984375 -11.84375 C 7.191406 -11.84375 6.550781 -11.640625 6.0625 -11.234375 C 5.582031 -10.828125 5.34375 -10.242188 5.34375 -9.484375 C 5.34375 -8.734375 5.582031 -8.15625 6.0625 -7.75 C 6.550781 -7.34375 7.191406 -7.140625 7.984375 -7.140625 Z M 4.5 1.765625 C 4.5 2.484375 4.832031 3.019531 5.5 3.375 C 6.164062 3.738281 6.984375 3.921875 7.953125 3.921875 C 8.878906 3.921875 9.628906 3.726562 10.203125 3.34375 C 10.785156 2.96875 11.078125 2.460938 11.078125 1.828125 C 11.078125 1.304688 10.890625 0.867188 10.515625 0.515625 C 10.140625 0.171875 9.390625 -0.0351562 8.265625 -0.109375 C 7.472656 -0.171875 6.738281 -0.257812 6.0625 -0.375 C 5.5 -0.0625 5.097656 0.273438 4.859375 0.640625 C 4.617188 1.003906 4.5 1.378906 4.5 1.765625 Z M 4.5 1.765625 "/></g></g><g style="fill:#d9d9d9;fill-opacity:1;"><g transform="translate(205.058318, 349.804952)"><path style="stroke:none" d="M 8.875 0.34375 C 7.425781 0.34375 6.140625 0.0351562 5.015625 -0.578125 C 3.898438 -1.203125 3.019531 -2.070312 2.375 -3.1875 C 1.738281 -4.3125 1.421875 -5.609375 1.421875 -7.078125 C 1.421875 -8.566406 1.734375 -9.890625 2.359375 -11.046875 C 2.992188 -12.210938 3.863281 -13.117188 4.96875 -13.765625 C 6.082031 -14.410156 7.394531 -14.734375 8.90625 -14.734375 C 10.320312 -14.734375 11.570312 -14.425781 12.65625 -13.8125 C 13.738281 -13.195312 14.582031 -12.347656 15.1875 -11.265625 C 15.800781 -10.191406 16.109375 -9 16.109375 -7.6875 C 16.109375 -7.476562 16.101562 -7.253906 16.09375 -7.015625 C 16.082031 -6.785156 16.066406 -6.546875 16.046875 -6.296875 L 5.109375 -6.296875 C 5.179688 -5.171875 5.570312 -4.289062 6.28125 -3.65625 C 6.988281 -3.019531 7.84375 -2.703125 8.84375 -2.703125 C 9.601562 -2.703125 10.238281 -2.867188 10.75 -3.203125 C 11.257812 -3.546875 11.640625 -3.988281 11.890625 -4.53125 L 15.671875 -4.53125 C 15.398438 -3.613281 14.945312 -2.78125 14.3125 -2.03125 C 13.6875 -1.289062 12.914062 -0.707031 12 -0.28125 C 11.082031 0.132812 10.039062 0.34375 8.875 0.34375 Z M 8.90625 -11.71875 C 8 -11.71875 7.195312 -11.460938 6.5 -10.953125 C 5.800781 -10.441406 5.359375 -9.664062 5.171875 -8.625 L 12.328125 -8.625 C 12.273438 -9.570312 11.925781 -10.320312 11.28125 -10.875 C 10.644531 -11.4375 9.851562 -11.71875 8.90625 -11.71875 Z M 8.90625 -11.71875 "/></g></g><g style="fill:#d9d9d9;fill-opacity:1;"><g transform="translate(220.661855, 349.804952)"><path style="stroke:none" d="M 1.890625 0 L 1.890625 -14.390625 L 5.171875 -14.390625 L 5.453125 -11.953125 C 5.898438 -12.804688 6.539062 -13.484375 7.375 -13.984375 C 8.21875 -14.484375 9.210938 -14.734375 10.359375 -14.734375 C 12.140625 -14.734375 13.519531 -14.171875 14.5 -13.046875 C 15.488281 -11.929688 15.984375 -10.289062 15.984375 -8.125 L 15.984375 0 L 12.28125 0 L 12.28125 -7.78125 C 12.28125 -9.019531 12.023438 -9.96875 11.515625 -10.625 C 11.015625 -11.28125 10.234375 -11.609375 9.171875 -11.609375 C 8.128906 -11.609375 7.269531 -11.238281 6.59375 -10.5 C 5.925781 -9.769531 5.59375 -8.742188 5.59375 -7.421875 L 5.59375 0 Z M 1.890625 0 "/></g></g><g style="fill:#d9d9d9;fill-opacity:1;"><g transform="translate(236.555432, 349.804952)"><path style="stroke:none" d="M 8.9375 0.34375 C 7.46875 0.34375 6.171875 0.0234375 5.046875 -0.609375 C 3.921875 -1.242188 3.035156 -2.128906 2.390625 -3.265625 C 1.742188 -4.410156 1.421875 -5.722656 1.421875 -7.203125 C 1.421875 -8.671875 1.742188 -9.972656 2.390625 -11.109375 C 3.035156 -12.253906 3.921875 -13.144531 5.046875 -13.78125 C 6.171875 -14.414062 7.46875 -14.734375 8.9375 -14.734375 C 10.769531 -14.734375 12.316406 -14.253906 13.578125 -13.296875 C 14.835938 -12.347656 15.640625 -11.03125 15.984375 -9.34375 L 12.078125 -9.34375 C 11.878906 -10.039062 11.492188 -10.585938 10.921875 -10.984375 C 10.347656 -11.378906 9.675781 -11.578125 8.90625 -11.578125 C 7.882812 -11.578125 7.015625 -11.1875 6.296875 -10.40625 C 5.578125 -9.632812 5.21875 -8.566406 5.21875 -7.203125 C 5.21875 -5.828125 5.578125 -4.75 6.296875 -3.96875 C 7.015625 -3.195312 7.882812 -2.8125 8.90625 -2.8125 C 9.675781 -2.8125 10.347656 -3.003906 10.921875 -3.390625 C 11.492188 -3.773438 11.878906 -4.328125 12.078125 -5.046875 L 15.984375 -5.046875 C 15.640625 -3.421875 14.835938 -2.113281 13.578125 -1.125 C 12.316406 -0.144531 10.769531 0.34375 8.9375 0.34375 Z M 8.9375 0.34375 "/></g></g><g style="fill:#d9d9d9;fill-opacity:1;"><g transform="translate(252.216979, 349.804952)"><path style="stroke:none" d="M 8.875 0.34375 C 7.425781 0.34375 6.140625 0.0351562 5.015625 -0.578125 C 3.898438 -1.203125 3.019531 -2.070312 2.375 -3.1875 C 1.738281 -4.3125 1.421875 -5.609375 1.421875 -7.078125 C 1.421875 -8.566406 1.734375 -9.890625 2.359375 -11.046875 C 2.992188 -12.210938 3.863281 -13.117188 4.96875 -13.765625 C 6.082031 -14.410156 7.394531 -14.734375 8.90625 -14.734375 C 10.320312 -14.734375 11.570312 -14.425781 12.65625 -13.8125 C 13.738281 -13.195312 14.582031 -12.347656 15.1875 -11.265625 C 15.800781 -10.191406 16.109375 -9 16.109375 -7.6875 C 16.109375 -7.476562 16.101562 -7.253906 16.09375 -7.015625 C 16.082031 -6.785156 16.066406 -6.546875 16.046875 -6.296875 L 5.109375 -6.296875 C 5.179688 -5.171875 5.570312 -4.289062 6.28125 -3.65625 C 6.988281 -3.019531 7.84375 -2.703125 8.84375 -2.703125 C 9.601562 -2.703125 10.238281 -2.867188 10.75 -3.203125 C 11.257812 -3.546875 11.640625 -3.988281 11.890625 -4.53125 L 15.671875 -4.53125 C 15.398438 -3.613281 14.945312 -2.78125 14.3125 -2.03125 C 13.6875 -1.289062 12.914062 -0.707031 12 -0.28125 C 11.082031 0.132812 10.039062 0.34375 8.875 0.34375 Z M 8.90625 -11.71875 C 8 -11.71875 7.195312 -11.460938 6.5 -10.953125 C 5.800781 -10.441406 5.359375 -9.664062 5.171875 -8.625 L 12.328125 -8.625 C 12.273438 -9.570312 11.925781 -10.320312 11.28125 -10.875 C 10.644531 -11.4375 9.851562 -11.71875 8.90625 -11.71875 Z M 8.90625 -11.71875 "/></g></g><g style="fill:#ff914d;fill-opacity:1;"><g transform="translate(271.090416, 350.130558)"><path style="stroke:none" d="M 6.953125 0.40625 C 5.597656 0.40625 4.484375 -0.015625 3.609375 -0.859375 C 2.742188 -1.710938 2.3125 -2.738281 2.3125 -3.9375 C 2.3125 -5.175781 2.742188 -6.21875 3.609375 -7.0625 C 4.484375 -7.914062 5.597656 -8.34375 6.953125 -8.34375 C 8.296875 -8.34375 9.398438 -7.914062 10.265625 -7.0625 C 11.140625 -6.21875 11.578125 -5.175781 11.578125 -3.9375 C 11.578125 -2.738281 11.140625 -1.710938 10.265625 -0.859375 C 9.398438 -0.015625 8.296875 0.40625 6.953125 0.40625 Z M 6.953125 0.40625 "/></g></g></g></svg>